<svg xmlns="http://www.w3.org/2000/svg" width="640" height="400" viewBox="0 0 640 400"><defs><linearGradient id="sky" x2="0" y2="1"><stop stop-color="#b7deeb"/><stop offset="1" stop-color="#ecf4da"/></linearGradient></defs><rect width="640" height="400" fill="url(#sky)"/><path d="M0 210 Q90 100 210 210T420 200T700 195V400H0Z" fill="#9cc8b0"/><path d="M0 285Q120 155 220 285T450 250T700 275V400H0Z" fill="#6da593"/><g fill="#406f65"><path d="M42 345V138h15v210Z"/><ellipse cx="50" cy="141" rx="70" ry="50"/><path d="M588 345V85h18v260Z"/><ellipse cx="594" cy="100" rx="82" ry="64"/></g><path d="M0 340Q180 310 300 335T650 325V400H0Z" fill="#506f66"/><path d="M0 338Q180 308 300 333T650 323" stroke="#baddab" stroke-width="9" fill="none"/><g transform="translate(295 220)"><path d="m-12 51-8 55h15L6 66l13 42h15L21 47Z" fill="#3d5d75"/><path d="M-22 2Q3-9 25 2l6 58h-58Z" fill="#86beba"/><rect x="-31" y="8" width="12" height="44" rx="5" fill="#c9ae79"/><circle cx="3" cy="-24" r="24" fill="#ffe2c4"/><path d="M-24-36q23-20 50 0v10h-50Z" fill="#567b88"/><path d="m-22 4 51 3v10h-51l-21 12-3-9Z" fill="#eeb8b1"/><rect x="23" y="25" width="56" height="10" rx="3" fill="#45617b"/><rect x="72" y="20" width="8" height="15" rx="2" fill="#e8d9b3"/><circle cx="13" cy="-25" r="3" fill="#3d5265"/></g><g fill="#fff1b9"><circle cx="440" cy="253" r="5"/><circle cx="469" cy="243" r="3"/></g><g fill="white" opacity=".4"><ellipse cx="180" cy="42" rx="63" ry="12"/><ellipse cx="65" cy="115" rx="47" ry="9"/></g></svg>